<?xml version="1.0" encoding="UTF-8" standalone="no"?>
<!DOCTYPE svg PUBLIC "-//W3C//DTD SVG 1.1//EN" "http://www.w3.org/Graphics/SVG/1.1/DTD/svg11.dtd">
<svg width="100%" height="100%" viewBox="0 0 1024 1024" version="1.1" xmlns="http://www.w3.org/2000/svg" xmlns:xlink="http://www.w3.org/1999/xlink" xml:space="preserve" xmlns:serif="http://www.serif.com/" style="fill-rule:evenodd;clip-rule:evenodd;">
    <circle cx="512" cy="580" r="380" style="fill:white;stroke:rgb(44,82,130);stroke-width:15px;"/>
    <g transform="matrix(0.906308,-0.422618,0.422618,0.906308,-139.982653,128.579059)">
        <ellipse cx="220" cy="380" rx="80" ry="120" style="fill:white;stroke:rgb(44,82,130);stroke-width:12px;"/>
    </g>
    <g transform="matrix(0.906308,0.422618,-0.422618,0.906308,235.923479,-304.182042)">
        <ellipse cx="804" cy="380" rx="80" ry="120" style="fill:white;stroke:rgb(44,82,130);stroke-width:12px;"/>
    </g>
    <path d="M180,340L844,340L825,120L720,160L640,100L560,140L512,80L464,140L384,100L304,160L199,120L180,340Z" style="fill:rgb(255,215,0);fill-rule:nonzero;stroke:rgb(230,172,0);stroke-width:8px;"/>
    <g transform="matrix(1,0,0,1,334,230)">
        <rect x="-40" y="-8" width="80" height="16" style="fill:rgb(52,199,89);"/>
        <rect x="-8" y="-40" width="16" height="80" style="fill:rgb(52,199,89);"/>
    </g>
    <g transform="matrix(1,0,0,1,444,230)">
        <rect x="-40" y="-8" width="80" height="16" style="fill:rgb(255,149,0);"/>
    </g>
    <g transform="matrix(1,0,0,1,580,230)">
        <g transform="matrix(0.707107,0.707107,-0.707107,0.707107,0,0)">
            <rect x="-40" y="-6" width="80" height="12" style="fill:rgb(255,59,48);"/>
        </g>
        <g transform="matrix(0.707107,-0.707107,0.707107,0.707107,0,0)">
            <rect x="-40" y="-6" width="80" height="12" style="fill:rgb(255,59,48);"/>
        </g>
    </g>
    <g transform="matrix(1,0,0,1,690,230)">
        <circle cx="0" cy="-24" r="12" style="fill:rgb(175,82,222);"/>
        <rect x="-40" y="-6" width="80" height="12" style="fill:rgb(175,82,222);"/>
        <circle cx="0" cy="24" r="12" style="fill:rgb(175,82,222);"/>
    </g>
    <ellipse cx="420" cy="520" rx="45" ry="65" style="fill:rgb(44,82,130);"/>
    <ellipse cx="604" cy="520" rx="45" ry="65" style="fill:rgb(44,82,130);"/>
    <ellipse cx="432" cy="505" rx="15" ry="20" style="fill:white;"/>
    <ellipse cx="616" cy="505" rx="15" ry="20" style="fill:white;"/>
    <path d="M512,620C500,610 480,610 480,628C480,646 512,670 512,670C512,670 544,646 544,628C544,610 524,610 512,620Z" style="fill:rgb(255,107,157);fill-rule:nonzero;"/>
    <path d="M430,700C484.667,733.333 539.333,733.333 594,700" style="fill:none;fill-rule:nonzero;stroke:rgb(44,82,130);stroke-width:12px;stroke-linecap:round;"/>
    <ellipse cx="504" cy="632" rx="6" ry="8" style="fill:rgb(255,179,209);"/>
    <g>
        <path d="M160,200L169,220L189,220L174,233L179,253L160,244L141,253L146,233L131,220L151,220L160,200Z" style="fill:rgb(255,215,0);fill-rule:nonzero;stroke:rgb(230,172,0);stroke-width:3px;"/>
        <path d="M864,200L873,220L893,220L878,233L883,253L864,244L845,253L850,233L835,220L855,220L864,200Z" style="fill:rgb(255,215,0);fill-rule:nonzero;stroke:rgb(230,172,0);stroke-width:3px;"/>
    </g>
    <ellipse cx="350" cy="620" rx="30" ry="25" style="fill:rgb(255,179,209);fill-opacity:0.4;"/>
    <ellipse cx="674" cy="620" rx="30" ry="25" style="fill:rgb(255,179,209);fill-opacity:0.4;"/>
</svg>
